#!OML:ASF F:\VICON\USERDATA\INSTALL\rory3\rory3.ASF
:FULLY-SPECIFIED
:DEGREES
193
root 5.6778 17.7118 2.84192 208.187 -86.0404 -196.806
lowerback 3.13991 1.78563 -1.08185
upperback 3.39 2.28667 0.913625
thorax 1.6392 1.08306 1.50281
lowerneck -15.0452 0.956216 -11.7171
upperneck 40.1632 5.17696 -4.18697
head 17.244 -0.884192 0.919343
rclavicle 1.68967e-014 -4.77083e-015
rhumerus -11.8565 3.15588 -72.2104
rradius 40.4591
rwrist 27.3693
rhand -34.5291 0.878255
rfingers 7.12502
rthumb -7.69031 -28.9619
lclavicle 1.68967e-014 -4.77083e-015
lhumerus -30.2049 7.13713 83.4374
lradius 35.1428
lwrist -6.10578
lhand -11.1171 24.87
lfingers 7.12502
lthumb 14.9076 54.3136
rfemur -11.2189 0.574831 20.3479
rtibia 48.2114
rfoot -7.55584 -3.96648
rtoes -6.9365
lfemur -31.4784 5.07069 -27.768
ltibia 15.5756
lfoot 5.32965 -2.84668
ltoes -8.84051
194
root 5.59121 17.7248 2.85332 213.287 -86.3661 -201.912
lowerback 3.23233 1.83449 -1.14866
upperback 3.44986 2.34893 0.835823
thorax 1.64769 1.11263 1.45732
lowerneck -14.9068 0.864175 -11.6353
upperneck 40.135 4.9691 -4.12385
head 17.1968 -0.935369 0.899007
rclavicle -2.94201e-014 -7.55382e-015
rhumerus -11.79 2.63756 -71.9275
rradius 39.9329
rwrist 27.816
rhand -34.6905 0.691821
rfingers 7.12502
rthumb -7.84607 -29.1426
lclavicle -2.94201e-014 -7.55382e-015
lhumerus -30.1778 6.32561 83.6008
lradius 35.924
lwrist -6.22229
lhand -11.037 24.7054
lfingers 7.12502
lthumb 14.9849 54.1432
rfemur -12.2776 0.187935 20.0796
rtibia 50.1945
rfoot -6.48879 -4.44242
rtoes -8.7068
lfemur -31.124 5.36514 -28.2412
ltibia 15.4452
lfoot 4.92755 -3.77819
ltoes -9.03561
195
root 5.50798 17.7352 2.86148 220.629 -86.6493 -209.237
lowerback 3.31749 1.86672 -1.34617
upperback 3.48882 2.38662 0.810231
thorax 1.63228 1.12713 1.53859
lowerneck -14.6465 0.780225 -11.5485
upperneck 39.9897 4.80411 -4.22336
head 17.0636 -0.981237 0.81318
rclavicle -3.97569e-015 -1.59028e-015
rhumerus -11.7423 2.32285 -71.482
rradius 39.428
rwrist 27.9227
rhand -34.6987 0.446774
rfingers 7.12502
rthumb -7.85399 -29.3873
lclavicle -3.97569e-015 -1.59028e-015
lhumerus -30.1767 5.46872 83.8802
lradius 36.6658
lwrist -6.20938
lhand -11.4748 24.5862
lfingers 7.12502
lthumb 14.5631 54.0549
rfemur -13.4077 -0.279573 19.745
rtibia 52.2135
rfoot -5.81471 -4.72627
rtoes -9.63542
lfemur -30.7909 5.68585 -28.8031
ltibia 15.2794
lfoot 4.6617 -4.60506
ltoes -8.88563
196
root 5.4256 17.7395 2.87022 229.412 -86.8459 -218.011
lowerback 3.38635 1.88492 -1.57024
upperback 3.55409 2.40443 0.782267
thorax 1.65274 1.13029 1.63376
lowerneck -14.4541 0.704888 -11.4741
upperneck 39.8557 4.66775 -4.31127
head 16.9525 -1.01803 0.740674
rclavicle -1.98785e-014 1.59028e-015
rhumerus -11.6606 1.95492 -71.0983
rradius 38.9259
rwrist 28.0262
rhand -34.7561 -0.199117
rfingers 7.12502
rthumb -7.90934 -30.0312
lclavicle -1.98785e-014 1.59028e-015
lhumerus -30.1617 4.5327 84.1539
lradius 37.482
lwrist -5.87401
lhand -11.8845 24.6083
lfingers 7.12502
lthumb 14.1683 54.1052
rfemur -14.5503 -0.610699 19.3913
rtibia 54.2458
rfoot -5.81482 -4.77702
rtoes -8.87856
lfemur -30.4565 5.92698 -29.3567
ltibia 15.1297
lfoot 4.39931 -5.38053
ltoes -9.13276
197
root 5.34449 17.7394 2.88129 238.493 -87.0633 -227.106
lowerback 3.43942 1.84653 -1.64302
upperback 3.67464 2.34834 0.749608
thorax 1.74812 1.09772 1.64291
lowerneck -14.4359 0.659779 -11.3314
upperneck 39.76 4.58289 -4.36569
head 16.9021 -1.02437 0.681374
rclavicle 3.37934e-014 -1.90833e-014
rhumerus -11.438 1.64587 -70.8427
rradius 38.3881
rwrist 28.054
rhand -34.8868 -1.24559
rfingers 7.12502
rthumb -8.03547 -31.0728
lclavicle 3.37934e-014 -1.90833e-014
lhumerus -30.0729 3.68054 84.3291
lradius 38.3364
lwrist -5.411
lhand -11.9354 24.5142
lfingers 7.12502
lthumb 14.1193 54.0145
rfemur -15.6602 -0.981675 19.1552
rtibia 56.2515
rfoot -6.31291 -4.73485
rtoes -7.1466
lfemur -30.1301 6.09824 -29.7829
ltibia 15.0307
lfoot 4.14055 -6.11117
ltoes -9.45559
198
root 5.26506 17.7387 2.89202 247.842 -87.266 -236.493
lowerback 3.50081 1.75193 -1.66054
upperback 3.82358 2.2163 0.78515
thorax 1.87073 1.0264 1.69303
lowerneck -14.5459 0.632834 -11.3107
upperneck 39.7162 4.58476 -4.41189
head 16.9096 -1.02086 0.660359
rclavicle 2.56432e-014 1.03368e-014
rhumerus -11.1611 1.38163 -70.5919
rradius 37.888
rwrist 28.0561
rhand -34.8909 -2.12723
rfingers 7.12502
rthumb -8.03947 -31.9543
lclavicle 2.56432e-014 1.03368e-014
lhumerus -29.943 3.12977 84.4878
lradius 39.1482
lwrist -5.12412
lhand -11.9741 24.4122
lfingers 7.12502
lthumb 14.0819 53.915
rfemur -16.7437 -1.40407 19.0206
rtibia 58.1787
rfoot -6.91938 -4.62061
rtoes -5.92485
lfemur -29.8085 6.42777 -30.1689
ltibia 14.9601
lfoot 3.88604 -6.94521
ltoes -9.49821
199
root 5.18931 17.7432 2.89723 259.757 -87.3556 -248.448
lowerback 3.64794 1.66861 -1.81897
upperback 3.91248 2.09532 0.883016
thorax 1.87639 0.958601 1.88194
lowerneck -14.5932 0.567616 -11.4684
upperneck 39.7446 4.56437 -4.44895
head 16.9422 -1.05898 0.666699
rclavicle 4.21423e-014 2.3059e-014
rhumerus -10.9867 1.03843 -70.2223
rradius 37.3295
rwrist 27.9419
rhand -34.9133 -2.78456
rfingers 7.12502
rthumb -8.0611 -32.6108
lclavicle 4.21423e-014 2.3059e-014
lhumerus -29.8404 2.65324 84.7064
lradius 39.8906
lwrist -4.94121
lhand -12.1277 24.2826
lfingers 7.12502
lthumb 13.934 53.7957
rfemur -17.8411 -1.69215 18.9145
rtibia 60.0147
rfoot -7.51702 -4.61148
rtoes -4.69362
lfemur -29.5148 6.84035 -30.6368
ltibia 14.9006
lfoot 3.59424 -7.91262
ltoes -9.41662
200
root 5.11433 17.7515 2.89928 272.59 -87.3575 -261.289
lowerback 3.86362 1.61479 -1.92234
upperback 3.91396 2.01561 0.953289
thorax 1.75536 0.916343 2.0076
lowerneck -14.5239 0.521657 -11.6241
upperneck 39.741 4.51466 -4.3906
head 16.9216 -1.08963 0.711382
rclavicle 2.90226e-014 1.51076e-014
rhumerus -10.9902 0.668709 -69.838
rradius 36.7877
rwrist 27.585
rhand -34.8507 -3.42049
rfingers 7.12502
rthumb -8.00065 -33.2491
lclavicle 2.90226e-014 1.51076e-014
lhumerus -29.8201 2.02002 84.8974
lradius 40.6228
lwrist -4.61094
lhand -12.3312 24.0964
lfingers 7.12502
lthumb 13.7378 53.6229
rfemur -18.9771 -1.97951 18.8676
rtibia 61.7469
rfoot -8.08748 -4.63518
rtoes -3.07842
lfemur -29.2307 6.92964 -30.9338
ltibia 14.8622
lfoot 3.32881 -8.55596
ltoes -9.40814
201
root 5.04254 17.7555 2.90331 283.054 -87.1813 -271.755
lowerback 4.13602 1.59014 -2.05623
upperback 3.89058 1.97329 0.988219
thorax 1.57592 0.89389 2.11149
lowerneck -14.4087 0.509323 -11.7253
upperneck 39.7099 4.49337 -4.34386
head 16.8734 -1.09897 0.747192
rclavicle -2.0276e-014 -1.11319e-014
rhumerus -11.1207 0.354736 -69.4957
rradius 36.3938
rwrist 26.9704
rhand -34.6608 -4.35175
rfingers 7.12502
rthumb -7.81738 -34.1872
lclavicle -2.0276e-014 -1.11319e-014
lhumerus -29.7965 1.29097 85.0307
lradius 41.3658
lwrist -4.191
lhand -12.5365 23.9148
lfingers 7.12502
lthumb 13.54 53.4545
rfemur -20.1747 -2.48493 18.6651
rtibia 63.4077
rfoot -8.50954 -4.5048
rtoes -2.07535
lfemur -28.9853 6.96195 -31.2446
ltibia 14.8974
lfoot 3.08074 -9.05456
ltoes -8.91016
202
root 4.97285 17.7541 2.90968 292.256 -86.8951 -280.988
lowerback 4.34801 1.53651 -2.25697
upperback 3.95289 1.88801 1.11233
thorax 1.51657 0.843982 2.34966
lowerneck -14.4284 0.474726 -11.8457
upperneck 39.711 4.53875 -4.47908
head 16.8884 -1.11612 0.714908
rclavicle 1.19271e-014 7.15625e-015
rhumerus -11.0868 0.24523 -68.9209
rradius 35.9871
rwrist 26.0882
rhand -34.3263 -4.70798
rfingers 7.12502
rthumb -7.49455 -34.5552
lclavicle 1.19271e-014 7.15625e-015
lhumerus -29.6547 0.71679 85.2748
lradius 42.0889
lwrist -4.01411
lhand -12.8711 23.6644
lfingers 7.12502
lthumb 13.2175 53.2254
rfemur -21.3332 -2.75495 18.4571
rtibia 64.9716
rfoot -8.99547 -4.64457
rtoes -2.11312
lfemur -28.6872 7.0595 -31.6236
ltibia 14.859
lfoot 2.85904 -9.67042
ltoes -8.565
203
root 4.90303 17.7498 2.91682 301.045 -86.6313 -289.842
lowerback 4.47979 1.49661 -2.26044
upperback 4.09712 1.82567 1.23132
thorax 1.59188 0.806094 2.47516
lowerneck -14.4712 0.409728 -11.9319
upperneck 39.6786 4.51718 -4.5619
head 16.8898 -1.14298 0.690557
rclavicle 9.93923e-015 2.3059e-014
rhumerus -10.9558 -0.273773 -68.2742
rradius 35.4111
rwrist 25.5447
rhand -33.9402 -3.98756
rfingers 7.12502
rthumb -7.12181 -33.8477
lclavicle 9.93923e-015 2.3059e-014
lhumerus -29.3854 0.331286 85.4798
lradius 42.7476
lwrist -4.06589
lhand -13.0579 23.4356
lfingers 7.12502
lthumb 13.0374 53.0082
rfemur -22.4235 -2.06672 18.5183
rtibia 66.4616
rfoot -9.93971 -5.58552
rtoes -2.52348
lfemur -28.4534 7.02027 -31.8235
ltibia 15.0337
lfoot 2.54933 -10.1478
ltoes -8.24679
204
root 4.82906 17.7633 2.92316 309.247 -86.3297 -298.144
lowerback 4.63386 1.45659 -2.14034
upperback 4.24144 1.76676 1.2782
thorax 1.66047 0.77377 2.45649
lowerneck -14.3919 0.354037 -11.9656
upperneck 39.5369 4.4275 -4.53323
head 16.7942 -1.16064 0.699119
rclavicle 1.11319e-014 -6.36111e-015
rhumerus -10.9376 -1.21481 -67.9163
rradius 34.8354
rwrist 25.469
rhand -33.9383 -3.68938
rfingers 7.12502
rthumb -7.11997 -33.5496
lclavicle 1.11319e-014 -6.36111e-015
lhumerus -29.0853 0.10973 85.4518
lradius 43.3931
lwrist -4.26129
lhand -12.7269 23.0817
lfingers 7.12502
lthumb 13.3564 52.6336
rfemur -23.4916 -2.96768 18.362
rtibia 67.8018
rfoot -10.0099 -5.53884
rtoes -4.80815
lfemur -28.2127 6.68208 -31.8343
ltibia 15.4062
lfoot 2.14314 -10.3237
ltoes -8.34902
205
root 4.75876 17.7567 2.92664 316.227 -85.9317 -305.185
lowerback 4.75789 1.36891 -2.12897
upperback 4.36422 1.64178 1.39635
thorax 1.72269 0.705422 2.57518
lowerneck -14.397 0.32499 -12.1699
upperneck 39.4966 4.43261 -4.46861
head 16.7705 -1.17238 0.765743
rclavicle -2.26615e-014 -8.74653e-015
rhumerus -10.9324 -1.82061 -67.5437
rradius 34.399
rwrist 25.5072
rhand -34.1688 -4.17464
rfingers 7.12502
rthumb -7.34247 -34.0272
lclavicle -2.26615e-014 -8.74653e-015
lhumerus -28.8207 0.0902646 85.4433
lradius 44.0389
lwrist -4.50933
lhand -12.3097 22.7825
lfingers 7.12502
lthumb 13.7585 52.3076
rfemur -24.5888 -2.92767 18.3728
rtibia 69.1055
rfoot -10.4105 -5.66032
rtoes -4.53554
lfemur -27.9856 6.22331 -31.8316
ltibia 15.6797
lfoot 1.85312 -10.4028
ltoes -8.37943
